<svg xmlns="http://www.w3.org/2000/svg" version="1.1" xmlns:xlink="http://www.w3.org/1999/xlink" width="359.4509152025911" height="200" viewBox="0 12.920000076293945 58.08000183105469 27.8799991607666"><path d="M23.48 35.72L23.48 35.72Q23.48 37.76 18.52 39.32L18.52 39.32Q14.56 40.56 11.80 40.56L11.80 40.56Q7.40 40.56 4.12 38.92L4.12 38.92Q0 36.84 0 32.80L0 32.80Q0 30 2.20 27.92L2.20 27.92Q3.72 26.48 6.84 24.88L6.84 24.88Q4.88 24.20 3.92 23.36L3.92 23.36Q2.76 22.28 2.76 20.44L2.76 20.44Q2.76 16.40 8.92 14.36L8.92 14.36Q13.28 12.92 18.32 12.92L18.32 12.92Q20.16 12.92 20.88 13.20L20.88 13.20Q22.28 13.64 22.28 15.04L22.28 15.04Q22.28 16.24 21.80 16.24L21.80 16.24Q21.32 15.80 20.44 15.12L20.44 15.12Q19.76 14.76 18.52 14.76L18.52 14.76Q14.16 14.76 9.92 15.96L9.92 15.96Q3.88 17.68 3.88 20.92L3.88 20.92Q3.88 22.32 5.92 23.08L5.92 23.08Q7.36 23.60 9.12 23.60L9.12 23.60Q9.64 23.60 12.84 23.36L12.84 23.36Q14.24 23.28 15.10 23.22Q15.96 23.16 16.28 23.20L16.28 23.20Q16.80 23.56 16.76 24.40L16.76 24.40Q16.68 25.24 16.12 25.44L16.12 25.44Q15.20 24.88 14.72 24.88L14.72 24.88Q11.24 24.88 6.92 26.64L6.92 26.64Q1.12 29.04 1.12 32.96L1.12 32.96Q1.12 36.20 5.20 37.68L5.20 37.68Q8.12 38.76 11.96 38.76L11.96 38.76Q13.48 38.76 15.84 38.36L15.84 38.36Q18.52 37.96 19.56 37.40L19.56 37.40Q22.20 36.04 22.20 35.72L22.20 35.72Q22.20 35.64 22.08 35.64L22.08 35.64L22.08 34.88Q23.48 34.88 23.48 35.72ZM30.64 28.52L30.64 28.52Q30.64 30.76 29.60 34.80L29.60 34.80Q28.36 39.64 26.80 39.64L26.80 39.64Q25.36 39.64 24.76 36.68L24.76 36.68Q24.40 34.88 24.40 32.64L24.40 32.64Q24.40 32.32 24.40 31.84L24.40 31.84Q24.40 31.32 24.44 30.64L24.44 30.64Q24.48 29.96 24.48 29.44L24.48 29.44Q24.48 28.92 24.48 28.60L24.48 28.60Q24.40 28.28 24.40 28.16L24.40 28.16Q24.40 28.04 24.48 27.92Q24.56 27.80 24.88 27.80L24.88 27.80Q26.12 27.84 26.12 29.08L26.12 29.08Q26.12 29.40 26.06 29.94Q26 30.48 25.92 31.16L25.92 31.16Q25.84 31.84 25.80 32.36Q25.76 32.88 25.76 33.20L25.76 33.20Q25.76 38.16 26.96 38.16L26.96 38.16Q27.56 38.16 28.60 34.48L28.60 34.48Q29.56 31.08 29.56 29.52L29.56 29.52L29.56 26.60Q29.28 25.32 29.28 25.44L29.28 25.44Q29.28 25.20 29.56 25.20L29.56 25.20Q30.64 25.20 30.64 28.52ZM37.44 29.44L36.96 28.80Q36.80 26.96 35.96 26.96L35.96 26.96Q35.28 26.96 34.76 28.88L34.76 28.88Q34.60 29.32 34.40 30.04Q34.20 30.76 33.92 31.68L33.92 31.68Q33.28 34.12 33.28 37.72L33.28 37.72Q33.28 38.40 33.56 39L33.56 39Q33.92 39.76 34.48 39.76L34.48 39.76Q35.24 39.32 36.08 36.68L36.08 36.68Q36.40 35.64 36.64 34.74Q36.88 33.84 36.96 33.12L36.96 33.12L37.44 29.44ZM39.40 40L39.40 40Q37.92 40 36.96 37.08L36.96 37.08Q35.92 40.80 34.28 40.80L34.28 40.80Q31.92 40.80 32.04 34.96L32.04 34.96Q32.12 33.40 33.04 29.76L33.04 29.76Q34.20 25.60 35 25.60L35 25.60Q36.76 25.60 37.24 26.52L37.24 26.52L37.96 27.96L39.36 28.44Q38.36 31.36 38 35.60L38 35.60Q37.92 36.52 38.16 37.52L38.16 37.52Q38.48 38.92 39.16 38.92L39.16 38.92Q40.52 38.92 42.88 29.08L42.88 29.08Q43.12 28.16 43.44 28.16L43.44 28.16Q43.76 28.16 43.76 28.76L43.76 28.76Q43.76 30.24 42.28 34.80L42.28 34.80Q40.60 40 39.40 40ZM55.08 28.76L55.08 28.76Q55.08 29.88 53.68 34.20L53.68 34.20Q51.76 40 50.60 40L50.60 40Q49.12 40 48.56 37.16L48.56 37.16Q48.40 36.36 48.28 34.66Q48.16 32.96 48.04 30.28L48.04 30.28Q47.84 31 47.30 32.94Q46.76 34.88 45.96 38.12L45.96 38.12Q45.56 39.84 44.72 39.84L44.72 39.84Q43.48 39.84 43.20 38.16L43.20 38.16L43.04 35.16Q42.92 33.40 43.04 31.96L43.04 31.96L43.16 30.48L42.80 29.72Q42.84 28.64 43 28.28L43 28.28Q43.24 27.64 44 27.64L44 27.64Q44.80 27.64 44.80 28.36L44.80 28.36Q44.80 28.60 44.52 29.40L44.52 29.40Q44.28 30.20 44.28 30.68L44.28 30.68Q44.28 31.04 44.28 31.60L44.28 31.60Q44.28 32.12 44.24 32.84L44.24 32.84Q44.20 33.56 44.20 34.12L44.20 34.12Q44.20 34.64 44.20 35L44.20 35Q44.20 37.88 44.84 37.88L44.84 37.88Q45.04 37.88 45.36 36.84L45.36 36.84Q45.92 34.52 46.20 33.80L46.20 33.80Q46.76 32 47.12 30.48Q47.48 28.96 47.56 27.60L47.56 27.60Q47.68 25.92 48.12 25.60L48.12 25.60Q50.16 25.72 50.16 26.88L50.16 26.88Q50.16 26 50.04 26.56Q49.92 27.12 49.72 29.16L49.72 29.16Q49.52 31.16 49.42 32.42Q49.32 33.68 49.32 34.24L49.32 34.24Q49.32 38.56 50.44 38.56L50.44 38.56Q51.40 38.56 52.76 34.32L52.76 34.32Q53.16 33.08 53.50 31.86Q53.84 30.64 54.12 29.40L54.12 29.40Q54.40 28.16 54.76 28.16L54.76 28.16Q55.08 28.16 55.08 28.76ZM58.08 36.72L58.08 36.72Q58.08 38.08 57.52 39.28L57.52 39.28Q56.80 40.64 55.48 40.64L55.48 40.64Q54.28 40.64 53.40 39.64L53.40 39.64Q52.76 39 52.76 38.36L52.76 38.36Q52.76 37.60 53.08 37.52L53.08 37.52Q53.36 37.52 53.36 38.16L53.36 38.16Q54.04 39.68 54.84 39.68L54.84 39.68Q56.68 39.68 56.68 36.56L56.68 36.56Q56.68 35.20 55.88 32.36L55.88 32.36Q55.44 30.92 55.04 29.84L55.04 29.84Q54.88 30.40 54.62 31.26Q54.36 32.12 54.04 33.28L54.04 33.28Q53.64 34.64 53 34.64L53 34.64Q52.92 34.64 52.68 34.56L52.68 34.56Q54.32 28.36 54.32 25.72L54.32 25.72Q54.32 24.64 55.36 24.64L55.36 24.64Q56.52 24.64 56.52 25.40L56.52 25.40Q56.52 25.52 56.46 25.80Q56.40 26.08 56.32 26.40Q56.24 26.72 56.18 27.02Q56.12 27.32 56.12 27.52L56.12 27.52Q56.12 29.04 57.08 32.20L57.08 32.20Q58.08 35.24 58.08 36.72Z" fill="black"></path></svg>